<svg width="12" height="17" viewBox="0 0 12 17" fill="none" xmlns="http://www.w3.org/2000/svg">
<path d="M5.75532 16.6143C4.60198 16.6142 3.47526 16.2676 2.52125 15.6194C1.56725 14.9713 0.82996 14.0515 0.404985 12.9793C-0.0199901 11.9071 -0.113052 10.732 0.137866 9.60623C0.388785 8.48051 0.972109 7.45613 1.81221 6.66591C2.84211 5.69663 5.3716 3.95147 4.98788 0.114258C9.59253 3.18403 11.8949 6.25379 7.29021 10.8584C8.05765 10.8584 9.20881 10.8584 11.1274 8.96286C11.3346 9.5561 11.5111 10.1938 11.5111 10.8584C11.5111 12.385 10.9047 13.849 9.8253 14.9284C8.74588 16.0078 7.28186 16.6143 5.75532 16.6143Z" fill="#FF4545"/>
</svg>
