<svg width="15" height="15" viewBox="0 0 15 15" fill="none" xmlns="http://www.w3.org/2000/svg">
<path fill-rule="evenodd" clip-rule="evenodd" d="M9.01106 2.66249V5.46247H12.973C13.176 5.46017 13.377 5.50202 13.5621 5.58512C13.7473 5.66822 13.9122 5.79058 14.0453 5.94373C14.1785 6.09687 14.2768 6.27714 14.3334 6.47204C14.3899 6.66694 14.4035 6.87181 14.373 7.07246L13.407 13.3724C13.3564 13.7062 13.1868 14.0105 12.9296 14.2292C12.6723 14.4479 12.3447 14.5662 12.007 14.5624H5.11119L5.11119 4.61225L6.91107 0.5625C7.46803 0.5625 8.00217 0.783748 8.39599 1.17757C8.78981 1.5714 9.01106 2.10554 9.01106 2.66249ZM3.11119 14.5624H2.01111C1.6398 14.5624 1.28371 14.4149 1.02116 14.1524C0.758613 13.8898 0.611115 13.5337 0.611115 13.1624V8.26245C0.611115 7.89115 0.758613 7.53506 1.02116 7.27251C1.28371 7.00996 1.6398 6.86246 2.01111 6.86246H3.11119L3.11119 14.5624Z" fill="white"/>
</svg>
